<svg width="30" height="64" viewBox="0 0 30 64" fill="none" xmlns="http://www.w3.org/2000/svg">
<path d="M2 1V19H29V1" stroke="#E4007F" stroke-width="2" stroke-linecap="round"/>
<path d="M14.4375 52.0312C12.2083 52.0312 10.151 51.4792 8.26562 50.375C6.38021 49.2604 4.88542 47.7604 3.78125 45.875C2.67708 43.9792 2.125 41.9167 2.125 39.6875C2.125 37.4583 2.67708 35.401 3.78125 33.5156C4.88542 31.6198 6.38021 30.1198 8.26562 29.0156C10.151 27.901 12.2083 27.3438 14.4375 27.3438C16.6667 27.3438 18.724 27.901 20.6094 29.0156C22.5052 30.1198 24.0052 31.6198 25.1094 33.5156C26.224 35.401 26.7812 37.4583 26.7812 39.6875C26.7812 41.9167 26.224 43.9792 25.1094 45.875C24.0052 47.7604 22.5052 49.2604 20.6094 50.375C18.724 51.4792 16.6667 52.0312 14.4375 52.0312ZM14.4375 49.625C16.2292 49.625 17.8854 49.1771 19.4062 48.2812C20.9375 47.3854 22.151 46.1771 23.0469 44.6562C23.9531 43.1354 24.4062 41.4792 24.4062 39.6875C24.4062 37.8958 23.9531 36.2396 23.0469 34.7188C22.151 33.1979 20.9375 31.9896 19.4062 31.0938C17.8854 30.1979 16.2292 29.75 14.4375 29.75C12.6458 29.75 10.9896 30.1979 9.46875 31.0938C7.94792 31.9896 6.73958 33.1979 5.84375 34.7188C4.94792 36.2396 4.5 37.8958 4.5 39.6875C4.5 41.4792 4.94792 43.1354 5.84375 44.6562C6.73958 46.1771 7.94792 47.3854 9.46875 48.2812C10.9896 49.1771 12.6458 49.625 14.4375 49.625ZM16.375 45.2188H14.1875V36.25H14.0938L11.5938 37.875V35.9375L14.3438 34.1875H16.375V45.2188Z" fill="#E4007F"/>
</svg>
