<svg width="47" height="75" viewBox="0 0 47 75" fill="none" xmlns="http://www.w3.org/2000/svg">
<path d="M1 1V30H46V1" stroke="#E4007F" stroke-width="2" stroke-linecap="round"/>
<path d="M24.9375 63.0312C18.1406 63.0156 12.625 57.4844 12.625 50.6875C12.625 43.8906 18.1406 38.3594 24.9375 38.3438C31.75 38.3594 37.2812 43.8906 37.2812 50.6875C37.2812 57.4844 31.75 63.0156 24.9375 63.0312ZM15 50.6875C15 56.1719 19.4844 60.625 24.9375 60.625C30.4219 60.625 34.8906 56.1719 34.9062 50.6875C34.8906 45.2031 30.4219 40.7344 24.9375 40.75C19.4844 40.7344 15 45.2031 15 50.6875ZM22.0938 48.875V46.9375L24.8438 45.1875H26.875V56.2188H24.6875V47.25H24.5938L22.0938 48.875Z" fill="#E4007F"/>
</svg>
