<svg width="82" height="124" viewBox="0 0 82 124" fill="none" xmlns="http://www.w3.org/2000/svg">
<path d="M81 68V82H0.999999V1" stroke="#00A0E9" stroke-width="2" stroke-linecap="round"/>
<path d="M40.9375 112.031C34.1406 112.016 28.625 106.484 28.625 99.6875C28.625 92.8906 34.1406 87.3594 40.9375 87.3438C47.75 87.3594 53.2812 92.8906 53.2812 99.6875C53.2812 106.484 47.75 112.016 40.9375 112.031ZM31 99.6875C31 105.172 35.4844 109.625 40.9375 109.625C46.4219 109.625 50.8906 105.172 50.9062 99.6875C50.8906 94.2031 46.4219 89.7344 40.9375 89.75C35.4844 89.7344 31 94.2031 31 99.6875ZM37 97.4375C36.9844 95.3125 38.5938 93.9375 40.875 93.9375C43.1719 93.9375 44.7344 95.2812 44.75 97.1562C44.7344 98.4219 44.125 99.4375 41.875 101.5L40.125 103.25V103.344H44.9062V105.125H37.0938V103.562L41.0312 99.8438C42.0938 98.8281 42.6406 98.2031 42.6562 97.3125C42.6406 96.2969 41.875 95.6875 40.8438 95.6875C39.7656 95.6875 39.0781 96.3438 39.0938 97.4375H37Z" fill="#00A0E9"/>
</svg>
