<svg width="54" height="112" viewBox="0 0 54 112" fill="none" xmlns="http://www.w3.org/2000/svg">
<path d="M1.5 1V69H52.5V59.129" stroke="#13A538" stroke-width="2" stroke-linecap="round"/>
<path d="M26.4375 100.031C24.2083 100.031 22.151 99.4792 20.2656 98.375C18.3802 97.2604 16.8854 95.7604 15.7812 93.875C14.6771 91.9792 14.125 89.9167 14.125 87.6875C14.125 85.4583 14.6771 83.401 15.7812 81.5156C16.8854 79.6198 18.3802 78.1198 20.2656 77.0156C22.151 75.901 24.2083 75.3438 26.4375 75.3438C28.6667 75.3438 30.724 75.901 32.6094 77.0156C34.5052 78.1198 36.0052 79.6198 37.1094 81.5156C38.224 83.401 38.7812 85.4583 38.7812 87.6875C38.7812 89.9167 38.224 91.9792 37.1094 93.875C36.0052 95.7604 34.5052 97.2604 32.6094 98.375C30.724 99.4792 28.6667 100.031 26.4375 100.031ZM26.4375 97.625C28.2292 97.625 29.8854 97.1771 31.4062 96.2812C32.9375 95.3854 34.151 94.1771 35.0469 92.6562C35.9531 91.1354 36.4062 89.4792 36.4062 87.6875C36.4062 85.8958 35.9531 84.2396 35.0469 82.7188C34.151 81.1979 32.9375 79.9896 31.4062 79.0938C29.8854 78.1979 28.2292 77.75 26.4375 77.75C24.6458 77.75 22.9896 78.1979 21.4688 79.0938C19.9479 79.9896 18.7396 81.1979 17.8438 82.7188C16.9479 84.2396 16.5 85.8958 16.5 87.6875C16.5 89.4792 16.9479 91.1354 17.8438 92.6562C18.7396 94.1771 19.9479 95.3854 21.4688 96.2812C22.9896 97.1771 24.6458 97.625 26.4375 97.625ZM26.4688 93.375C25.6771 93.375 24.9688 93.2396 24.3438 92.9688C23.7188 92.6875 23.2292 92.3021 22.875 91.8125C22.5208 91.3125 22.3438 90.75 22.3438 90.125H24.5312C24.5312 90.5417 24.7135 90.8854 25.0781 91.1562C25.4531 91.4271 25.9167 91.5625 26.4688 91.5625C27.0417 91.5625 27.5104 91.4167 27.875 91.125C28.25 90.8333 28.4375 90.4583 28.4375 90C28.4375 89.5208 28.2396 89.1354 27.8438 88.8438C27.4583 88.5521 26.9271 88.4062 26.25 88.4062H25.2812V86.75H26.25C26.8125 86.75 27.2708 86.6094 27.625 86.3281C27.9792 86.0365 28.1562 85.6667 28.1562 85.2188C28.1562 84.7917 28.0052 84.4479 27.7031 84.1875C27.401 83.9167 27 83.7812 26.5 83.7812C25.9792 83.7812 25.5365 83.9115 25.1719 84.1719C24.8177 84.4323 24.6354 84.7812 24.625 85.2188H22.5312C22.5417 84.6042 22.7188 84.0573 23.0625 83.5781C23.4167 83.0885 23.8958 82.7083 24.5 82.4375C25.1042 82.1667 25.7708 82.0312 26.5 82.0312C27.2396 82.0312 27.8906 82.1667 28.4531 82.4375C29.026 82.7083 29.4688 83.0781 29.7812 83.5469C30.0938 84.0156 30.25 84.5312 30.25 85.0938C30.25 85.7188 30.0625 86.2448 29.6875 86.6719C29.3125 87.0885 28.8125 87.3542 28.1875 87.4688V87.5625C28.9896 87.6562 29.6042 87.9323 30.0312 88.3906C30.4688 88.849 30.6875 89.4271 30.6875 90.125C30.6875 90.7396 30.5052 91.2969 30.1406 91.7969C29.776 92.2865 29.2708 92.6719 28.625 92.9531C27.9896 93.2344 27.2708 93.375 26.4688 93.375Z" fill="#13A538"/>
</svg>
