<svg width="103" height="102" viewBox="0 0 103 102" fill="none" xmlns="http://www.w3.org/2000/svg">
<path d="M1.5 46.7368V60H101.5V1.5" stroke="#EA5B0C" stroke-width="2" stroke-linecap="round"/>
<path d="M50.4375 90.0312C48.2083 90.0312 46.151 89.4792 44.2656 88.375C42.3802 87.2604 40.8854 85.7604 39.7812 83.875C38.6771 81.9792 38.125 79.9167 38.125 77.6875C38.125 75.4583 38.6771 73.401 39.7812 71.5156C40.8854 69.6198 42.3802 68.1198 44.2656 67.0156C46.151 65.901 48.2083 65.3438 50.4375 65.3438C52.6667 65.3438 54.724 65.901 56.6094 67.0156C58.5052 68.1198 60.0052 69.6198 61.1094 71.5156C62.224 73.401 62.7812 75.4583 62.7812 77.6875C62.7812 79.9167 62.224 81.9792 61.1094 83.875C60.0052 85.7604 58.5052 87.2604 56.6094 88.375C54.724 89.4792 52.6667 90.0312 50.4375 90.0312ZM50.4375 87.625C52.2292 87.625 53.8854 87.1771 55.4062 86.2812C56.9375 85.3854 58.151 84.1771 59.0469 82.6562C59.9531 81.1354 60.4062 79.4792 60.4062 77.6875C60.4062 75.8958 59.9531 74.2396 59.0469 72.7188C58.151 71.1979 56.9375 69.9896 55.4062 69.0938C53.8854 68.1979 52.2292 67.75 50.4375 67.75C48.6458 67.75 46.9896 68.1979 45.4688 69.0938C43.9479 69.9896 42.7396 71.1979 41.8438 72.7188C40.9479 74.2396 40.5 75.8958 40.5 77.6875C40.5 79.4792 40.9479 81.1354 41.8438 82.6562C42.7396 84.1771 43.9479 85.3854 45.4688 86.2812C46.9896 87.1771 48.6458 87.625 50.4375 87.625ZM46.0938 79.5L50.7812 72.1875H53.5V79.4375H54.9062V81.2188H53.5V83.2188H51.4062V81.2188H46.0938V79.5ZM51.4688 79.4375V74.5938H51.3438L48.2812 79.375V79.4375H51.4688Z" fill="#EA5B0C"/>
</svg>
