<svg width="35" height="41" viewBox="0 0 35 41" fill="none" xmlns="http://www.w3.org/2000/svg">
<path d="M32.7743 10.0781L32.3993 7.6406C32.3993 7.6406 34.0868 6.14061 34.0868 5.95311C34.8368 5.20311 34.8368 4.26561 33.7118 4.07811L31.0868 3.70309L29.9618 1.45312C29.3993 0.515625 28.6493 0.515625 28.0868 1.45312L26.9618 3.70309L24.3368 4.07811C23.3993 4.26561 23.2118 5.20311 23.9618 5.95311L25.6493 7.6406L25.2743 10.0781C25.0868 11.2031 25.8368 11.7656 26.9618 11.2031C27.1493 11.2031 29.0243 10.0781 29.0243 10.0781C29.0243 10.0781 30.8993 11.0156 31.0868 11.2031C32.2118 11.7656 32.9618 11.3906 32.7743 10.0781Z" fill="#F59C00"/>
<path d="M29.3991 23.2034C30.1491 22.0784 30.8991 21.1409 30.8991 20.9534C32.7741 18.3284 32.0241 16.2658 29.2116 15.8908L21.8991 16.0783L17.5866 10.2658C15.7116 8.20333 13.6491 8.57833 12.5241 11.2033L10.4616 18.1409L3.52409 20.3909C1.08659 21.7034 0.899088 23.9534 3.52409 25.6409C3.71159 25.8284 8.96159 29.3909 8.96159 29.3909V36.1409C9.14909 39.5159 11.3991 40.4533 14.0241 38.3908C14.0241 38.3908 14.7741 37.8284 15.7116 37.0784" stroke="#F59C00" stroke-width="2" stroke-linecap="round" stroke-linejoin="round"/>
<path d="M21.8994 20.7676L19.8369 22.4551L23.0244 22.6426" stroke="#F59C00" stroke-width="2" stroke-linecap="round" stroke-linejoin="round"/>
<path d="M14.3996 23.7668C14.2121 23.0168 13.4621 22.4543 12.7121 22.6418C11.9621 22.8293 11.3996 23.5793 11.5871 24.3293" stroke="#F59C00" stroke-width="2" stroke-linecap="round" stroke-linejoin="round"/>
</svg>
