<svg width="65" height="75" viewBox="0 0 65 75" fill="none" xmlns="http://www.w3.org/2000/svg">
<path d="M1.5 1V30H63.5V1" stroke="#E4007F" stroke-width="2" stroke-linecap="round"/>
<path d="M32.9375 63.0312C30.7083 63.0312 28.651 62.4792 26.7656 61.375C24.8802 60.2604 23.3854 58.7604 22.2812 56.875C21.1771 54.9792 20.625 52.9167 20.625 50.6875C20.625 48.4583 21.1771 46.401 22.2812 44.5156C23.3854 42.6198 24.8802 41.1198 26.7656 40.0156C28.651 38.901 30.7083 38.3438 32.9375 38.3438C35.1667 38.3438 37.224 38.901 39.1094 40.0156C41.0052 41.1198 42.5052 42.6198 43.6094 44.5156C44.724 46.401 45.2812 48.4583 45.2812 50.6875C45.2812 52.9167 44.724 54.9792 43.6094 56.875C42.5052 58.7604 41.0052 60.2604 39.1094 61.375C37.224 62.4792 35.1667 63.0312 32.9375 63.0312ZM32.9375 60.625C34.7292 60.625 36.3854 60.1771 37.9062 59.2812C39.4375 58.3854 40.651 57.1771 41.5469 55.6562C42.4531 54.1354 42.9062 52.4792 42.9062 50.6875C42.9062 48.8958 42.4531 47.2396 41.5469 45.7188C40.651 44.1979 39.4375 42.9896 37.9062 42.0938C36.3854 41.1979 34.7292 40.75 32.9375 40.75C31.1458 40.75 29.4896 41.1979 27.9688 42.0938C26.4479 42.9896 25.2396 44.1979 24.3438 45.7188C23.4479 47.2396 23 48.8958 23 50.6875C23 52.4792 23.4479 54.1354 24.3438 55.6562C25.2396 57.1771 26.4479 58.3854 27.9688 59.2812C29.4896 60.1771 31.1458 60.625 32.9375 60.625ZM34.875 56.2188H32.6875V47.25H32.5938L30.0938 48.875V46.9375L32.8438 45.1875H34.875V56.2188Z" fill="#E4007F"/>
</svg>
