<svg width="68" height="131" viewBox="0 0 68 131" fill="none" xmlns="http://www.w3.org/2000/svg">
<path d="M1 70V86H67V1" stroke="#00A0E9" stroke-width="2" stroke-linecap="round"/>
<path d="M33.9375 119.031C31.7083 119.031 29.651 118.474 27.7656 117.359C25.8802 116.245 24.3854 114.745 23.2812 112.859C22.1771 110.974 21.625 108.917 21.625 106.688C21.625 104.458 22.1771 102.401 23.2812 100.516C24.3854 98.6302 25.8802 97.1302 27.7656 96.0156C29.651 94.901 31.7083 94.3438 33.9375 94.3438C36.1667 94.3438 38.224 94.901 40.1094 96.0156C42.0052 97.1302 43.5052 98.6302 44.6094 100.516C45.724 102.401 46.2812 104.458 46.2812 106.688C46.2812 108.917 45.724 110.974 44.6094 112.859C43.5052 114.745 42.0052 116.245 40.1094 117.359C38.224 118.474 36.1667 119.031 33.9375 119.031ZM24 106.688C24 108.479 24.4479 110.141 25.3438 111.672C26.2396 113.193 27.4479 114.401 28.9688 115.297C30.4896 116.182 32.1458 116.625 33.9375 116.625C35.7396 116.625 37.401 116.182 38.9219 115.297C40.4427 114.401 41.651 113.193 42.5469 111.672C43.4531 110.151 43.9062 108.49 43.9062 106.688C43.9062 104.885 43.4531 103.224 42.5469 101.703C41.651 100.182 40.4427 98.9792 38.9219 98.0938C37.401 97.1979 35.7396 96.75 33.9375 96.75C32.1458 96.75 30.4896 97.1979 28.9688 98.0938C27.4479 98.9792 26.2396 100.182 25.3438 101.703C24.4479 103.224 24 104.885 24 106.688ZM30 104.438C30 103.74 30.1615 103.125 30.4844 102.594C30.8073 102.062 31.2604 101.656 31.8438 101.375C32.4375 101.083 33.1146 100.938 33.875 100.938C34.625 100.938 35.2917 101.078 35.875 101.359C36.4688 101.63 36.9271 102.01 37.25 102.5C37.5833 102.979 37.75 103.531 37.75 104.156C37.7396 104.594 37.651 105.01 37.4844 105.406C37.3177 105.802 37.026 106.245 36.6094 106.734C36.2031 107.224 35.625 107.812 34.875 108.5L33.125 110.25V110.344H37.9062V112.125H30.0938V110.562L34.0312 106.844C34.6146 106.281 35.026 105.823 35.2656 105.469C35.5156 105.115 35.6458 104.729 35.6562 104.312C35.6458 103.812 35.474 103.417 35.1406 103.125C34.8073 102.833 34.375 102.688 33.8438 102.688C33.3021 102.688 32.8698 102.844 32.5469 103.156C32.2344 103.469 32.0833 103.896 32.0938 104.438H30Z" fill="#00A0E9"/>
</svg>
